# Blender v2.78 (sub 0) OBJ File: ''
# www.blender.org
o Cube_Cube.000
v -1.581038 0.000000 0.000000
v -1.084323 0.000000 -1.084323
v -0.685830 -1.000000 -0.685830
v -1.000000 -1.000000 -0.000000
v 0.000000 0.000000 -1.581038
v 1.084323 0.000000 -1.084323
v 0.685830 -1.000000 -0.685830
v 0.000000 -1.000000 -1.000000
v 1.581038 0.000000 0.000000
v 1.084323 -0.000000 1.084323
v 0.685830 -1.000000 0.685830
v 1.000000 -1.000000 -0.000000
v 0.000000 -0.000000 1.581038
v -1.084323 -0.000000 1.084323
v -0.685830 -1.000000 0.685830
v 0.000000 -1.000000 1.000000
v 0.000000 -1.000000 -0.000000
v 0.000000 1.000000 0.000000
v 0.000000 1.000000 -1.600560
v -1.097711 1.000000 -1.097711
v -1.600560 1.000000 0.000000
v 0.000000 1.000000 1.600560
v -1.097711 1.000000 1.097711
v 1.097711 1.000000 1.097711
v 1.600560 1.000000 0.000000
v 1.097711 1.000000 -1.097711
vn -0.8039 -0.4671 -0.3682
vn 0.3682 -0.4671 -0.8039
vn 0.8039 -0.4671 0.3682
vn -0.3682 -0.4671 0.8039
vn 0.0000 -1.0000 -0.0000
vn 0.0000 1.0000 0.0000
vn 0.3682 -0.4671 0.8039
vn 0.4164 -0.0177 0.9090
vn -0.4164 -0.0177 0.9090
vn 0.8039 -0.4671 -0.3682
vn 0.9090 -0.0177 -0.4164
vn 0.9090 -0.0177 0.4164
vn -0.3682 -0.4671 -0.8039
vn -0.4164 -0.0177 -0.9090
vn 0.4164 -0.0177 -0.9090
vn -0.8039 -0.4671 0.3682
vn -0.9090 -0.0177 0.4164
vn -0.9090 -0.0177 -0.4164
s 1
f 2//1 4//1 1//1
f 6//2 8//2 5//2
f 10//3 12//3 9//3
f 14//4 16//4 13//4
f 17//5 7//5 12//5
f 18//6 20//6 21//6
f 18//6 23//6 22//6
f 24//6 18//6 22//6
f 26//6 18//6 25//6
f 17//5 11//5 16//5
f 15//5 17//5 16//5
f 3//5 17//5 4//5
f 10//7 16//7 11//7
f 24//8 13//8 10//8
f 23//9 13//9 22//9
f 6//10 12//10 7//10
f 26//11 9//11 6//11
f 24//12 9//12 25//12
f 2//13 8//13 3//13
f 20//14 5//14 2//14
f 26//15 5//15 19//15
f 14//16 4//16 15//16
f 23//17 1//17 14//17
f 20//18 1//18 21//18
f 2//1 3//1 4//1
f 6//2 7//2 8//2
f 10//3 11//3 12//3
f 14//4 15//4 16//4
f 17//5 8//5 7//5
f 18//6 19//6 20//6
f 18//6 21//6 23//6
f 24//6 25//6 18//6
f 26//6 19//6 18//6
f 17//5 12//5 11//5
f 15//5 4//5 17//5
f 3//5 8//5 17//5
f 10//7 13//7 16//7
f 24//8 22//8 13//8
f 23//9 14//9 13//9
f 6//10 9//10 12//10
f 26//11 25//11 9//11
f 24//12 10//12 9//12
f 2//13 5//13 8//13
f 20//14 19//14 5//14
f 26//15 6//15 5//15
f 14//16 1//16 4//16
f 23//17 21//17 1//17
f 20//18 2//18 1//18
